<?xml version="1.0" encoding="utf-8"?>
<!-- Generator: Adobe Illustrator 23.1.0, SVG Export Plug-In . SVG Version: 6.00 Build 0)  -->
<svg version="1.1" id="Layer_4" xmlns="http://www.w3.org/2000/svg" xmlns:xlink="http://www.w3.org/1999/xlink" x="0px" y="0px"
	 viewBox="0 0 134.1 32" style="enable-background:new 0 0 134.1 32;" xml:space="preserve">
<style type="text/css">
	.st0{fill:#FAD2CF;}
	.st1{fill:#AECBFA;}
	.st2{fill:#A8DAB5;}
	.st3{fill:#FBBC04;}
	.st4{fill:#FDE293;}
	.st5{fill:#4285F4;}
	.st6{fill:#34A853;}
	.st7{fill:none;stroke:#0D652D;stroke-width:0.9375;stroke-miterlimit:10;}
	.st8{fill:#EA4335;}
	.st9{fill:none;stroke:#E37400;stroke-width:0.9375;stroke-miterlimit:10;}
	.st10{fill:none;stroke:#174EA6;stroke-width:0.9375;stroke-miterlimit:10;}
	.st11{fill:none;stroke:#A50E0E;stroke-width:0.9375;stroke-miterlimit:10;}
	.st12{fill:none;stroke:#A50E0E;stroke-width:0.9342;stroke-miterlimit:10;}
	.st13{fill:none;stroke:#202124;stroke-width:0.8598;stroke-miterlimit:10;}
</style>
<g>
	<g>
		<rect x="65.4" y="1.3" class="st0" width="5.4" height="13.4"/>
	</g>
	<g>
		<rect x="108.1" y="1.3" class="st1" width="5.4" height="13.4"/>
	</g>
	<g>
		<rect x="17.2" y="1.3" class="st2" width="5.4" height="13.4"/>
	</g>
	<path class="st3" d="M37.4,14.7L37.4,14.7l0-13.4h0c-2.6,0-4.8,2.1-4.8,4.8v3.8C32.6,12.6,34.8,14.7,37.4,14.7z"/>
	<g>
		<rect x="37.4" y="1.3" class="st4" width="6.1" height="13.4"/>
	</g>
	<g>
		<polygon class="st1" points="46.7,1.3 54.5,14.7 54.5,1.3 		"/>
	</g>
	<polygon class="st5" points="62.2,1.3 54.5,1.3 54.5,14.7 54.5,14.7 	"/>
	<path class="st6" d="M22.6,1.3c3.7,0,6.7,3,6.7,6.7s-3,6.7-6.7,6.7V1.3z"/>
	<path class="st7" d="M22.6,12.2c2.3,0,4.1-1.9,4.1-4.1s-1.9-4.1-4.1-4.1h-2.7v3.2"/>
	<path class="st3" d="M97.9,11.4c-2.8,0-5-2.2-5-5s2.2-5,5-5V11.4z"/>
	<rect x="70.8" y="1.3" class="st8" width="4.5" height="3.3"/>
	<rect x="104.6" y="1.3" class="st5" width="3.4" height="3.3"/>
	<rect x="113.5" y="1.3" class="st5" width="3.4" height="3.3"/>
	<rect x="70.8" y="8" class="st8" width="3.3" height="3.3"/>
	<rect x="97.9" y="1.3" class="st3" width="4.5" height="3.3"/>
	<g>
		<path class="st4" d="M97.9,4.7v6.7h-4.5v3.3h4.5c2.8,0,5-2.2,5-5C102.9,6.9,100.7,4.7,97.9,4.7z"/>
	</g>
	<path class="st9" d="M95.6,8.7c-0.6-0.6-1-1.5-1-2.4c0-1.8,1.5-3.3,3.3-3.3h2.5"/>
	<line class="st10" x1="106.3" y1="3" x2="115.2" y2="3"/>
	<path class="st6" d="M83.2,14.7L83.2,14.7V1.3l0,0c-2.6,0-4.8,2.1-4.8,4.8v3.8C78.4,12.6,80.6,14.7,83.2,14.7z"/>
	<g>
		<rect x="83.2" y="1.3" class="st2" width="6.1" height="13.4"/>
	</g>
	<line class="st7" x1="81.7" y1="6" x2="80.9" y2="6"/>
	<line class="st7" x1="89.3" y1="6" x2="83.3" y2="6"/>
	<line class="st7" x1="89.3" y1="10" x2="87.5" y2="10"/>
	<line class="st7" x1="85.9" y1="10" x2="84.5" y2="10"/>
	<circle class="st10" cx="54.5" cy="9.2" r="0.9"/>
	<circle class="st10" cx="57.4" cy="4.1" r="0.9"/>
	<line class="st10" x1="57" y1="4.8" x2="54.9" y2="8.5"/>
	<circle class="st10" cx="51.5" cy="4.1" r="0.9"/>
	<line class="st10" x1="51.9" y1="4.8" x2="54.1" y2="8.5"/>
	<rect x="19.2" y="7.3" transform="matrix(0.7071 0.7071 -0.7071 0.7071 11.5111 -11.7389)" class="st7" width="1.4" height="1.4"/>
	<rect x="86.1" y="9.5" transform="matrix(0.7071 0.7071 -0.7071 0.7071 32.4905 -58.3622)" class="st7" width="1.1" height="1.1"/>
	<rect x="82" y="5.4" transform="matrix(0.7071 0.7071 -0.7071 0.7071 28.4288 -56.6073)" class="st7" width="1.1" height="1.1"/>
	<circle class="st10" cx="110.8" cy="5.9" r="0.8"/>
	<circle class="st10" cx="110.8" cy="9" r="0.8"/>
	<circle class="st10" cx="110.8" cy="12.1" r="0.8"/>
	<path class="st9" d="M96.3,13h1.6c1.8,0,3.3-1.5,3.3-3.3s-1.5-3.3-3.3-3.3"/>
	<polyline class="st11" points="71.5,9.7 68.1,9.7 68.1,13.1 	"/>
	<polyline class="st12" points="73,3 68.1,3 68.1,7.9 	"/>
	<line class="st9" x1="43.5" y1="6" x2="37.4" y2="6"/>
	<line class="st9" x1="43.5" y1="8" x2="37.4" y2="8"/>
	<line class="st9" x1="43.5" y1="10" x2="37.4" y2="10"/>
	<path class="st13" d="M84.5,20.6c1.8,0,3.3,1.5,3.3,3.3v3.3c0,1.8-1.5,3.3-3.3,3.3H82"/>
	<path class="st13" d="M61.8,20.6c1.8,0,3.3,1.5,3.3,3.3v3.3c0,1.8-1.5,3.3-3.3,3.3c-1.8,0-3.3-1.5-3.3-3.3V24
		C58.5,22.1,60,20.6,61.8,20.6z"/>
	<line class="st13" x1="73.3" y1="20.7" x2="73.3" y2="30.7"/>
	<polyline class="st13" points="51.6,30.7 46.7,30.7 46.7,29 	"/>
	<path class="st13" d="M46.7,29c0-1.3,1-2.3,2.3-2.3c1.7,0,3-1.3,3-3s-1.3-3-3-3h-2.3"/>
	<path class="st13" d="M84.5,20.6c-1.8,0-3.3,1.5-3.3,3.3c0,1.8,1.5,3.3,3.3,3.3s3.3-1.5,3.3-3.3"/>
</g>
</svg>
